<svg width="64" height="86" viewBox="0 0 64 86" fill="none" xmlns="http://www.w3.org/2000/svg">
<g id="Pointer_selected">
<mask id="path-1-inside-1" fill="white">
<path fill-rule="evenodd" clip-rule="evenodd" d="M32 0C49.5575 0 64 14.1447 64 31.9671C64 46.3947 54.3717 55.1645 46.1593 66.4803L32 86L17.5575 66.4803C9.34513 55.1645 0 46.3947 0 31.9671C0 14.1447 14.1593 0 32 0ZM32 17.5395C39.9292 17.5395 46.1593 24.0461 46.1593 31.9671C46.1593 39.8882 39.9292 46.1118 32 46.1118C24.0708 46.1118 17.5575 39.8882 17.5575 31.9671C17.5575 24.0461 24.0708 17.5395 32 17.5395Z"/>
</mask>
<path fill-rule="evenodd" clip-rule="evenodd" d="M32 0C49.5575 0 64 14.1447 64 31.9671C64 46.3947 54.3717 55.1645 46.1593 66.4803L32 86L17.5575 66.4803C9.34513 55.1645 0 46.3947 0 31.9671C0 14.1447 14.1593 0 32 0ZM32 17.5395C39.9292 17.5395 46.1593 24.0461 46.1593 31.9671C46.1593 39.8882 39.9292 46.1118 32 46.1118C24.0708 46.1118 17.5575 39.8882 17.5575 31.9671C17.5575 24.0461 24.0708 17.5395 32 17.5395Z" fill="#333333"/>
<path d="M46.1593 66.4803L44.5406 65.3055L44.5404 65.3059L46.1593 66.4803ZM32 86L30.3922 87.1896L32.016 89.3841L33.6189 87.1743L32 86ZM17.5575 66.4803L15.9388 67.655L15.9498 67.6698L17.5575 66.4803ZM32 2C48.4664 2 62 15.2628 62 31.9671H66C66 13.0267 50.6486 -2 32 -2V2ZM62 31.9671C62 38.6851 59.7738 44.1142 56.4706 49.3189C54.8089 51.9374 52.886 54.4814 50.8343 57.1129C48.799 59.7232 46.6206 62.4396 44.5406 65.3055L47.7779 67.655C49.8042 64.863 51.909 62.2398 53.9887 59.5724C56.0521 56.9261 58.0761 54.2542 59.8479 51.4623C63.4121 45.8463 66 39.6767 66 31.9671H62ZM44.5404 65.3059L30.3811 84.8257L33.6189 87.1743L47.7782 67.6546L44.5404 65.3059ZM33.6078 84.8104L19.1653 65.2907L15.9498 67.6698L30.3922 87.1896L33.6078 84.8104ZM19.1762 65.3055C17.1011 62.4463 14.9399 59.7284 12.9345 57.1228C10.9116 54.4944 9.02406 51.9514 7.39774 49.3348C4.16549 44.1346 2 38.6993 2 31.9671H-2C-2 39.6625 0.50708 45.826 4.00049 51.4464C5.737 54.2402 7.7256 56.9131 9.76462 59.5624C11.8212 62.2346 13.9078 64.8564 15.9389 67.655L19.1762 65.3055ZM2 31.9671C2 15.2512 15.2619 2 32 2V-2C13.0567 -2 -2 13.0382 -2 31.9671H2ZM32 19.5395C38.7752 19.5395 44.1593 25.1006 44.1593 31.9671H48.1593C48.1593 22.9915 41.0832 15.5395 32 15.5395V19.5395ZM44.1593 31.9671C44.1593 38.7817 38.8266 44.1118 32 44.1118V48.1118C41.0318 48.1118 48.1593 40.9947 48.1593 31.9671H44.1593ZM32 44.1118C25.1214 44.1118 19.5575 38.7304 19.5575 31.9671H15.5575C15.5575 41.0459 23.0202 48.1118 32 48.1118V44.1118ZM19.5575 31.9671C19.5575 25.1526 25.1734 19.5395 32 19.5395V15.5395C22.9682 15.5395 15.5575 22.9395 15.5575 31.9671H19.5575Z" fill="#F9CB1C" mask="url(#path-1-inside-1)"/>
</g>
</svg>
